<svg width="18" height="34" viewBox="0 0 18 34" fill="none" xmlns="http://www.w3.org/2000/svg">
<path d="M2.33334 33.6667C1.86112 33.6667 1.46501 33.5067 1.14501 33.1867C0.826116 32.8678 0.666672 32.4722 0.666672 32V5.33334C0.666672 4.86111 0.826116 4.465 1.14501 4.145C1.46501 3.82611 1.86112 3.66667 2.33334 3.66667H5.66667V2C5.66667 1.52778 5.82667 1.13167 6.14667 0.811669C6.46556 0.49278 6.86112 0.333336 7.33334 0.333336H10.6667C11.1389 0.333336 11.535 0.49278 11.855 0.811669C12.1739 1.13167 12.3333 1.52778 12.3333 2V3.66667H15.6667C16.1389 3.66667 16.5344 3.82611 16.8533 4.145C17.1733 4.465 17.3333 4.86111 17.3333 5.33334V32C17.3333 32.4722 17.1733 32.8678 16.8533 33.1867C16.5344 33.5067 16.1389 33.6667 15.6667 33.6667H2.33334ZM8.91667 27.375L13.3333 19.0417C13.4722 18.7639 13.4656 18.4933 13.3133 18.23C13.16 17.9656 12.9306 17.8333 12.625 17.8333H10.6667V12C10.6667 11.5556 10.4583 11.2844 10.0417 11.1867C9.625 11.09 9.30556 11.2361 9.08334 11.625L4.66667 19.9583C4.52778 20.2361 4.53501 20.5067 4.68834 20.77C4.84056 21.0344 5.06945 21.1667 5.375 21.1667H7.33334V27C7.33334 27.4444 7.54167 27.715 7.95834 27.8117C8.375 27.9094 8.69445 27.7639 8.91667 27.375Z" fill="#111111"/>
</svg>
