<svg width="34" height="30" viewBox="0 0 34 30" fill="none" xmlns="http://www.w3.org/2000/svg">
<path d="M4.53998 5.41667C4.53998 5.08515 4.67168 4.7672 4.9061 4.53278C5.14052 4.29836 5.45846 4.16667 5.78998 4.16667H28.2166C28.5482 4.16667 28.8661 4.29836 29.1005 4.53278C29.3349 4.7672 29.4666 5.08515 29.4666 5.41667V11.25C29.4666 11.5815 29.3349 11.8995 29.1005 12.1339C28.8661 12.3683 28.5482 12.5 28.2166 12.5H5.78998C5.45846 12.5 5.14052 12.3683 4.9061 12.1339C4.67168 11.8995 4.53998 11.5815 4.53998 11.25V5.41667ZM7.03998 6.66667V10H26.9666V6.66667H7.03998ZM20.7166 14.965C20.3851 14.965 20.0672 15.0967 19.8328 15.3311C19.5983 15.5655 19.4666 15.8835 19.4666 16.215V23.715C19.4666 24.405 20.025 24.965 20.7166 24.965H28.2166C28.5482 24.965 28.8661 24.8333 29.1005 24.5989C29.3349 24.3645 29.4666 24.0465 29.4666 23.715V16.215C29.4666 15.8835 29.3349 15.5655 29.1005 15.3311C28.8661 15.0967 28.5482 14.965 28.2166 14.965H20.7166ZM21.9666 22.465V17.465H26.9666V22.465H21.9666ZM4.53998 17.0833C4.53998 16.7518 4.67168 16.4339 4.9061 16.1994C5.14052 15.965 5.45846 15.8333 5.78998 15.8333H15.75C16.0815 15.8333 16.3994 15.965 16.6339 16.1994C16.8683 16.4339 17 16.7518 17 17.0833C17 17.4149 16.8683 17.7328 16.6339 17.9672C16.3994 18.2016 16.0815 18.3333 15.75 18.3333H5.78998C5.45846 18.3333 5.14052 18.2016 4.9061 17.9672C4.67168 17.7328 4.53998 17.4149 4.53998 17.0833ZM5.78998 21.6667C5.45846 21.6667 5.14052 21.7984 4.9061 22.0328C4.67168 22.2672 4.53998 22.5851 4.53998 22.9167C4.53998 23.2482 4.67168 23.5661 4.9061 23.8006C5.14052 24.035 5.45846 24.1667 5.78998 24.1667H15.75C16.0815 24.1667 16.3994 24.035 16.6339 23.8006C16.8683 23.5661 17 23.2482 17 22.9167C17 22.5851 16.8683 22.2672 16.6339 22.0328C16.3994 21.7984 16.0815 21.6667 15.75 21.6667H5.78998ZM0.333313 4.58333C0.333313 3.36776 0.816199 2.20197 1.67574 1.34243C2.53528 0.482886 3.70107 0 4.91665 0H29.0833C30.2989 0 31.4647 0.482886 32.3242 1.34243C33.1838 2.20197 33.6666 3.36776 33.6666 4.58333V25.4167C33.6666 26.6322 33.1838 27.798 32.3242 28.6576C31.4647 29.5171 30.2989 30 29.0833 30H4.91665C3.70107 30 2.53528 29.5171 1.67574 28.6576C0.816199 27.798 0.333313 26.6322 0.333313 25.4167V4.58333ZM4.91665 2.5C3.76665 2.5 2.83331 3.43333 2.83331 4.58333V25.4167C2.83331 26.5667 3.76665 27.5 4.91665 27.5H29.0833C30.2333 27.5 31.1666 26.5667 31.1666 25.4167V4.58333C31.1666 3.43333 30.2333 2.5 29.0833 2.5H4.91665Z" fill="#111111"/>
</svg>
