<svg width="30" height="38" viewBox="0 0 30 38" fill="none" xmlns="http://www.w3.org/2000/svg">
<path d="M1.66667 0.666672H28.3333C28.7754 0.666672 29.1993 0.842266 29.5118 1.15483C29.8244 1.46739 30 1.89131 30 2.33334V9.00001C30 9.44203 29.8244 9.86596 29.5118 10.1785C29.1993 10.4911 28.7754 10.6667 28.3333 10.6667H1.66667C1.22464 10.6667 0.800716 10.4911 0.488155 10.1785C0.175595 9.86596 0 9.44203 0 9.00001V2.33334C0 1.89131 0.175595 1.46739 0.488155 1.15483C0.800716 0.842266 1.22464 0.666672 1.66667 0.666672ZM1.66667 14H28.3333C28.7754 14 29.1993 14.1756 29.5118 14.4882C29.8244 14.8007 30 15.2246 30 15.6667V22.3333C30 22.7754 29.8244 23.1993 29.5118 23.5119C29.1993 23.8244 28.7754 24 28.3333 24H1.66667C1.22464 24 0.800716 23.8244 0.488155 23.5119C0.175595 23.1993 0 22.7754 0 22.3333V15.6667C0 15.2246 0.175595 14.8007 0.488155 14.4882C0.800716 14.1756 1.22464 14 1.66667 14ZM1.66667 27.3333H28.3333C28.7754 27.3333 29.1993 27.5089 29.5118 27.8215C29.8244 28.1341 30 28.558 30 29V35.6667C30 36.1087 29.8244 36.5326 29.5118 36.8452C29.1993 37.1577 28.7754 37.3333 28.3333 37.3333H1.66667C1.22464 37.3333 0.800716 37.1577 0.488155 36.8452C0.175595 36.5326 0 36.1087 0 35.6667V29C0 28.558 0.175595 28.1341 0.488155 27.8215C0.800716 27.5089 1.22464 27.3333 1.66667 27.3333ZM10 7.33334H11.6667V4.00001H10V7.33334ZM10 20.6667H11.6667V17.3333H10V20.6667ZM10 34H11.6667V30.6667H10V34ZM3.33333 4.00001V7.33334H6.66667V4.00001H3.33333ZM3.33333 17.3333V20.6667H6.66667V17.3333H3.33333ZM3.33333 30.6667V34H6.66667V30.6667H3.33333Z" fill="#111111"/>
</svg>
